<svg xmlns="http://www.w3.org/2000/svg" width="40" height="40" viewBox="0 0 30 30" fill="none">
    <g clip-path="url(#clip0_353_6394)">
        <path d="M24.6687 0.609985H4.7312C2.22866 0.609985 0.199951 2.6387 0.199951 5.14124V25.0787C0.199951 27.5813 2.22866 29.61 4.7312 29.61H24.6687C27.1712 29.61 29.2 27.5813 29.2 25.0787V5.14124C29.2 2.6387 27.1712 0.609985 24.6687 0.609985Z" fill="#0088CC"/>
        <path d="M7.5405 14.8456C11.4328 13.1499 14.0283 12.0318 15.327 11.4917C19.0349 9.94943 19.8053 9.68154 20.3076 9.67257C20.4179 9.67071 20.6649 9.69813 20.8249 9.8279C20.96 9.93747 20.9971 10.0855 21.015 10.1895C21.0327 10.2934 21.0548 10.5302 21.0373 10.7151C20.8363 12.8263 19.9669 17.9497 19.5246 20.3143C19.3374 21.3149 18.9688 21.6504 18.612 21.6832C17.8368 21.7545 17.248 21.1708 16.497 20.6785C15.3218 19.9082 14.658 19.4286 13.5173 18.677C12.1991 17.8083 13.0537 17.3308 13.8049 16.5506C14.0015 16.3464 17.4178 13.239 17.4839 12.9571C17.4922 12.9218 17.4998 12.7904 17.4218 12.721C17.3437 12.6517 17.2285 12.6754 17.1453 12.6943C17.0275 12.721 15.1502 13.9619 11.5135 16.4167C10.9806 16.7826 10.4979 16.9609 10.0656 16.9516C9.58879 16.9412 8.67177 16.682 7.99005 16.4604C7.1539 16.1886 6.48934 16.0449 6.54721 15.5833C6.57736 15.3429 6.90845 15.0969 7.5405 14.8456Z" fill="#D4E4F2"/>
    </g>
    <defs>
        <clipPath id="clip0_353_6394">
            <rect width="29" height="29" fill="white" transform="translate(0.199951 0.609985)"/>
        </clipPath>
    </defs>
</svg>
