<svg xmlns="http://www.w3.org/2000/svg" width="40" height="40" viewBox="0 0 30 30" fill="none">
    <g clip-path="url(#clip0_353_6386)">
        <path d="M24.6687 0.609985H4.7312C2.22866 0.609985 0.199951 2.6387 0.199951 5.14124V25.0787C0.199951 27.5813 2.22866 29.61 4.7312 29.61H24.6687C27.1712 29.61 29.2 27.5813 29.2 25.0787V5.14124C29.2 2.6387 27.1712 0.609985 24.6687 0.609985Z" fill="#E71E24"/>
        <path d="M21.5875 11.5756C21.4062 10.9412 20.9531 10.4881 20.3187 10.3068C19.2312 10.035 14.6093 10.035 14.6093 10.035C14.6093 10.035 10.0781 10.035 8.89996 10.3068C8.26559 10.4881 7.81245 10.9412 7.6312 11.5756C7.44995 12.7537 7.44995 15.11 7.44995 15.11C7.44995 15.11 7.44995 17.4662 7.72183 18.6443C7.90308 19.2787 8.3562 19.7318 8.99058 19.9131C10.0781 20.185 14.7 20.185 14.7 20.185C14.7 20.185 19.2312 20.185 20.4093 19.9131C21.0437 19.7318 21.4968 19.2787 21.6781 18.6443C21.95 17.4662 21.95 15.11 21.95 15.11C21.95 15.11 21.95 12.7537 21.5875 11.5756ZM13.25 17.285V12.935L17.0562 15.11L13.25 17.285Z" fill="#D4E4F2"/>
    </g>
    <defs>
        <clipPath id="clip0_353_6386">
            <rect width="29" height="29" fill="white" transform="translate(0.199951 0.609985)"/>
        </clipPath>
    </defs>
</svg>
