<svg xmlns="http://www.w3.org/2000/svg" width="40" height="40" viewBox="0 0 30 30" fill="none">
    <g clip-path="url(#clip0_353_6400)">
        <path d="M0.199951 15.11C0.199951 7.10184 6.69181 0.609985 14.7 0.609985C22.7081 0.609985 29.2 7.10184 29.2 15.11C29.2 23.1181 22.7081 29.61 14.7 29.61C6.69181 29.61 0.199951 23.1181 0.199951 15.11Z" fill="#333333"/>
        <path fill-rule="evenodd" clip-rule="evenodd" d="M14.4065 0.609985C14.338 6.57539 13.9479 9.91391 11.7259 12.1359C9.50388 14.358 6.16535 14.7481 0.199951 14.8166V15.6823C6.16535 15.7507 9.50388 16.1408 11.7259 18.3629C13.9131 20.55 14.3253 23.8189 14.4031 29.61H15.2757C15.3534 23.8189 15.7656 20.55 17.9528 18.3629C20.14 16.1757 23.4089 15.7634 29.2 15.6857V14.813C23.4089 14.7354 20.14 14.3231 17.9528 12.1359C15.7308 9.91391 15.3407 6.57539 15.2722 0.609985H14.4065Z" fill="#D4E4F2"/>
    </g>
    <defs>
        <clipPath id="clip0_353_6400">
            <rect width="29" height="29" fill="white" transform="translate(0.199951 0.609985)"/>
        </clipPath>
    </defs>
</svg>
